<?xml version="1.0" standalone="no"?>
<!DOCTYPE svg PUBLIC "-//W3C//DTD SVG 20010904//EN"
 "http://www.w3.org/TR/2001/REC-SVG-20010904/DTD/svg10.dtd">
<svg version="1.0" xmlns="http://www.w3.org/2000/svg"
 width="3547.000000pt" height="3547.000000pt" viewBox="0 0 3547.000000 3547.000000"
 preserveAspectRatio="xMidYMid meet">
<metadata>
Created by potrace 1.14, written by Peter Selinger 2001-2017
</metadata>
<g transform="translate(0.000000,3547.000000) scale(0.100000,-0.100000)"
fill="#000000" stroke="none">
<path d="M477 24358 c2 -106 4 -1250 6 -2543 l2 -2350 160 0 160 0 3 2378 2
2377 33 1 c17 0 1223 0 2680 1 l2647 0 0 164 0 164 -2848 0 -2848 0 3 -192z"/>
<path d="M34490 24543 c0 -5 -1209 -8 -2687 -8 l-2688 0 -1 -145 c0 -80 1
-150 4 -157 2 -8 671 -11 2683 -11 1474 0 2682 -2 2685 -4 2 -3 4 -1036 5
-2296 0 -1779 3 -2292 12 -2293 99 -6 290 -2 296 6 4 6 7 1113 7 2460 l-1
2450 -157 3 c-87 1 -158 -1 -158 -5z"/>
<path d="M13909 22133 c-117 -44 -184 -123 -218 -255 -19 -72 -19 -145 -20
-2624 0 -1402 0 -2558 -1 -2570 l0 -21 -1045 -1 c-575 0 -1045 1 -1045 3 0 2
24 18 53 36 28 18 54 36 57 39 3 3 21 17 40 30 36 26 42 30 125 100 354 298
675 765 819 1191 63 186 85 319 81 489 -2 74 -6 144 -8 155 -3 11 -8 40 -12
65 -28 169 -117 403 -213 554 -43 70 -76 120 -89 136 -151 195 -284 331 -453
462 -346 267 -735 434 -1175 503 -153 25 -513 25 -690 0 -31 -4 -96 -13 -155
-21 -19 -3 -75 -14 -125 -25 -879 -192 -1495 -782 -1609 -1539 -14 -94 -15
-356 -1 -445 49 -310 203 -673 419 -984 194 -279 475 -563 699 -705 31 -20 57
-38 57 -40 0 -1 -465 -2 -1032 -2 l-1033 1 -1 825 c-1 730 -4 904 -19 1000 -2
14 -7 50 -10 80 -4 30 -13 87 -22 125 -8 39 -17 83 -20 99 -9 52 -63 227 -100
320 -200 511 -585 908 -1083 1118 -236 99 -460 154 -765 187 -78 8 -501 7
-560 -2 -16 -3 -57 -8 -90 -12 -33 -3 -76 -10 -95 -15 -19 -5 -51 -11 -70 -14
-19 -3 -92 -21 -161 -40 -740 -203 -1282 -749 -1480 -1491 -11 -44 -23 -91
-25 -105 -3 -14 -11 -56 -19 -95 -27 -131 -38 -268 -39 -445 -1 -353 44 -635
146 -914 220 -601 687 -1036 1318 -1226 297 -90 536 -124 865 -125 142 0 168
3 233 24 60 20 83 34 131 81 69 68 91 121 97 230 8 163 -54 277 -186 345 -64
32 -134 44 -310 50 -181 7 -233 11 -315 26 -33 6 -73 13 -88 15 -63 8 -287 79
-367 116 -404 187 -656 498 -760 941 -38 162 -45 236 -44 482 0 225 12 312 70
511 123 429 431 766 842 925 83 32 196 65 252 74 19 3 60 10 90 15 132 24 340
31 490 16 95 -9 103 -11 257 -42 50 -10 204 -68 288 -109 350 -170 600 -471
727 -875 30 -97 54 -206 63 -289 3 -25 8 -59 10 -76 3 -16 7 -462 10 -990 5
-933 9 -1178 18 -1221 22 -93 107 -186 207 -223 65 -25 67 -25 560 -31 272 -3
2999 -4 6060 -2 4728 3 5575 6 5635 18 201 40 329 183 363 404 9 60 8 1969 -1
2038 -4 23 -9 66 -11 96 -9 84 -43 253 -76 370 -220 782 -840 1357 -1630 1510
-41 8 -97 17 -123 21 -27 4 -56 8 -66 10 -74 14 -402 18 -1653 18 l-1438 0 -1
671 c0 369 -2 694 -4 722 -9 120 -74 243 -158 296 -96 61 -253 74 -368 31z
m-3185 -2407 c238 -32 532 -142 736 -273 467 -302 677 -755 544 -1168 -74
-227 -251 -522 -449 -745 -53 -59 -210 -217 -256 -257 -203 -175 -439 -311
-624 -358 -94 -25 -247 -25 -340 -1 -315 83 -749 422 -1051 821 -178 235 -285
451 -330 666 -35 167 -20 398 35 534 27 66 78 168 109 215 53 82 215 238 316
304 212 140 502 233 811 262 39 4 72 8 74 10 5 5 379 -4 425 -10z m3810 -1548
c-1 -815 -2 -1491 -3 -1501 -1 -13 -8 -17 -23 -15 -21 3 -23 8 -25 81 -1 44
-4 85 -7 93 -3 8 -2 14 2 14 5 0 8 695 2 820 0 19 -1 588 -1 655 4 394 2 1226
-3 1234 -4 6 -4 11 1 11 4 0 6 22 5 49 -3 41 -1 50 15 53 10 3 23 1 28 -3 7
-5 10 -512 9 -1491z m106 1481 c3 -4 5 -679 4 -1500 l0 -1493 -37 -2 -37 -2 0
1503 c0 1424 1 1504 18 1507 19 5 44 -2 52 -13z m129 2 c5 -7 6 -2933 2 -2986
-1 -6 -21 -11 -46 -11 l-45 -1 0 156 c0 242 0 2718 0 2792 l0 65 42 -3 c23 -2
44 -7 47 -12z m238 -1488 c0 -961 -3 -1500 -9 -1504 -6 -4 -18 -4 -28 -2 -17
5 -18 69 -16 1500 1 1482 2 1496 21 1503 11 4 23 6 26 4 3 -2 6 -677 6 -1501z
m99 -3 c0 -825 -3 -1500 -8 -1501 -4 -1 -18 -2 -30 -2 l-23 -1 0 1499 c-1
1499 -1 1500 20 1506 11 3 25 4 31 2 7 -3 10 -456 10 -1503z m89 7 c-1 -821
-4 -1497 -8 -1504 -4 -6 -15 -9 -25 -6 -18 4 -19 59 -17 1506 1 826 2 1503 3
1503 1 1 12 -1 25 -3 l22 -4 0 -1492z m108 -4 l0 -1498 -24 -6 c-13 -3 -30 -4
-36 -1 -10 3 -13 313 -13 1502 l0 1499 33 3 c17 2 34 2 36 1 2 -2 4 -677 4
-1500z m132 -5 l0 -1501 -43 0 c-23 0 -45 2 -47 5 -4 4 -9 2832 -5 2985 0 12
41 20 75 15 20 -3 20 -11 20 -1504z m150 9 c-2 -821 -4 -1495 -4 -1499 -1 -5
-21 -8 -45 -8 l-43 0 3 518 c1 284 4 959 5 1499 l2 982 31 3 c17 2 36 2 42 0
9 -2 11 -387 9 -1495z m85 68 c0 -781 0 -1455 0 -1497 l0 -78 -29 0 -28 0 2
1497 c2 1463 2 1497 21 1504 10 4 22 4 26 0 5 -4 8 -646 8 -1426z m114 257
c-1 -642 -3 -1317 -3 -1499 l-1 -333 -40 0 -41 0 0 98 c0 53 0 104 0 112 0 8
0 639 0 1402 1 1001 4 1387 12 1390 6 2 26 2 44 0 l32 -4 -3 -1166z m273 -332
c-1 -1355 -2 -1500 -16 -1500 -9 0 -21 4 -26 8 -7 5 -10 507 -10 1495 1 1557
0 1516 40 1501 9 -4 12 -363 12 -1504z m108 2 l0 -1496 -36 -4 -35 -3 0 1498
0 1498 20 6 c55 15 51 124 51 -1499z m111 1499 l20 -1 1 -1498 0 -1498 -47 0
-48 -1 0 1501 -1 1502 27 -2 c15 -1 36 -3 48 -3z m150 -1498 l-1 -1498 -25 -1
-25 -1 0 1498 c-1 1498 -1 1498 20 1502 11 1 23 2 26 0 4 -1 6 -677 5 -1500z
m109 -5 l0 -1493 -30 0 -30 0 0 378 c0 207 4 377 8 377 5 0 5 5 1 12 -11 17
-11 108 -1 108 5 0 5 6 1 12 -11 18 -11 388 0 388 5 0 4 6 -1 13 -5 6 -8 32
-6 57 2 25 3 52 3 60 -4 154 -2 339 4 348 4 7 4 12 -1 12 -10 0 -10 91 1 108
4 7 4 12 -1 12 -10 0 -9 162 0 177 4 7 4 14 -1 17 -9 6 -8 47 2 64 4 7 4 17 0
24 -10 16 -11 148 -1 148 5 0 5 5 1 12 -10 16 -11 139 -1 145 4 2 4 9 0 16 -9
15 -10 147 0 147 5 0 5 5 1 12 -10 16 -11 139 -1 145 4 2 4 9 0 16 -9 16 -10
87 0 87 4 0 5 5 1 12 -5 7 -8 27 -9 46 -1 36 20 56 45 42 13 -7 15 -173 15
-1502z m83 1474 c-1 -15 1 -33 6 -40 4 -7 2 -12 -4 -12 -8 0 -8 -6 0 -20 8
-14 8 -20 0 -20 -8 0 -8 -6 0 -20 8 -14 8 -20 0 -20 -8 0 -8 -6 0 -20 8 -14 8
-20 0 -20 -8 0 -8 -6 0 -20 8 -14 8 -20 0 -20 -8 0 -8 -6 0 -20 8 -14 8 -20 0
-20 -8 0 -8 -6 0 -20 8 -14 8 -20 0 -20 -8 0 -8 -6 0 -20 8 -14 8 -20 0 -20
-8 0 -8 -6 0 -20 8 -14 8 -20 0 -20 -8 0 -8 -6 0 -20 8 -14 8 -20 0 -20 -8 0
-8 -6 0 -20 8 -14 8 -20 0 -20 -8 0 -8 -6 0 -20 8 -14 8 -20 0 -20 -8 0 -8 -6
0 -20 8 -14 8 -20 0 -20 -8 0 -8 -6 0 -20 8 -14 8 -20 0 -20 -8 0 -8 -6 0 -20
8 -14 8 -20 0 -20 -8 0 -8 -6 0 -20 8 -14 8 -20 0 -20 -8 0 -8 -6 0 -20 8 -14
8 -20 0 -20 -8 0 -8 -6 0 -20 8 -14 8 -20 0 -20 -8 0 -8 -6 0 -20 8 -14 8 -20
0 -20 -8 0 -8 -6 0 -20 8 -14 8 -20 0 -20 -7 0 -8 -6 0 -19 5 -11 6 -22 2 -25
-5 -3 -6 -27 -2 -53 3 -27 3 -60 -1 -73 -3 -14 -2 -33 3 -42 5 -10 4 -19 -2
-23 -7 -4 -7 -12 0 -25 6 -10 6 -21 2 -24 -5 -3 -6 -27 -2 -53 3 -27 3 -60 -1
-73 -3 -14 -2 -33 3 -42 5 -10 4 -19 -2 -23 -7 -4 -7 -12 0 -25 6 -10 6 -21 2
-24 -5 -3 -6 -27 -2 -53 3 -27 3 -60 -1 -73 -3 -14 -2 -33 3 -42 5 -10 4 -19
-2 -23 -7 -4 -7 -12 0 -25 6 -10 6 -21 2 -24 -5 -3 -6 -27 -2 -53 3 -27 3 -60
-1 -73 -3 -14 -2 -33 3 -42 5 -10 4 -19 -2 -23 -7 -4 -7 -12 0 -25 6 -10 6
-21 2 -24 -5 -3 -6 -27 -2 -53 3 -27 3 -60 -1 -73 -3 -14 -2 -33 3 -42 5 -10
4 -19 -2 -23 -7 -4 -7 -12 0 -25 6 -10 6 -21 2 -24 -5 -3 -6 -27 -2 -53 3 -27
3 -60 -1 -73 -3 -14 -2 -33 3 -42 5 -10 4 -19 -2 -23 -7 -4 -7 -12 0 -25 6
-10 6 -21 2 -24 -5 -3 -6 -27 -2 -53 3 -27 3 -60 -1 -73 -3 -14 -2 -33 3 -42
5 -10 4 -19 -2 -23 -7 -4 -7 -12 0 -25 6 -10 6 -21 2 -24 -5 -3 -6 -27 -2 -53
3 -27 3 -60 -1 -73 -3 -14 -2 -33 3 -42 5 -10 4 -19 -2 -23 -7 -4 -7 -12 0
-25 7 -13 7 -21 0 -25 -6 -4 -8 -10 -5 -15 5 -8 7 -92 2 -145 -1 -23 -7 -30
-22 -30 -20 0 -20 7 -22 1497 -1 1387 0 1497 15 1501 26 5 32 -2 30 -31z m90
-1472 c-3 -1417 -4 -1493 -21 -1496 -9 -1 -21 5 -25 14 -6 12 -9 2930 -3 2974
1 9 34 16 44 8 4 -3 6 -678 5 -1500z m109 4 c0 -1083 -3 -1494 -11 -1495 -6 0
-19 -2 -29 -4 -9 -2 -21 4 -25 13 -6 13 -9 2886 -3 2972 1 12 10 15 35 12 l33
-4 0 -1494z m131 1 l0 -1493 -27 -4 c-14 -2 -35 -2 -46 0 l-21 3 0 1494 0
1494 26 3 c14 2 35 2 46 0 l22 -4 0 -1493z m152 880 c0 -336 -1 -1007 -2
-1492 l-1 -883 -46 0 -46 0 2 262 c2 145 4 816 6 1491 2 994 5 1230 16 1236 7
5 26 5 42 2 l30 -6 -1 -610z m86 -881 l1 -1495 -31 3 -31 3 3 1065 c1 586 2
1257 2 1492 l0 427 23 3 c12 2 24 2 27 0 3 -2 5 -676 6 -1498z m119 -1 l0
-1488 -27 -3 -26 -3 0 1488 c0 983 3 1492 10 1500 7 8 16 9 27 4 15 -8 16
-126 16 -1498z m-2405 -5 l0 -1503 -25 -1 c-14 -1 -25 1 -26 5 -3 20 -4 2978
-1 2989 2 6 15 12 28 12 l24 0 0 -1502z m1070 2 c0 -1493 0 -1500 -20 -1500
-14 0 -20 7 -20 23 -1 62 2 2057 4 2484 1 462 2 493 18 493 17 0 18 -80 18
-1500z m1437 1486 c4 -4 7 -2476 4 -2908 l-1 -68 -35 0 -35 0 0 1496 0 1495
31 -5 c17 -2 33 -7 36 -10z m128 -18 c6 -5 10 -537 10 -1484 l0 -1475 -49 3
-48 3 0 1475 c1 811 1 1480 1 1487 1 13 69 7 86 -9z m132 -28 l30 -11 -3
-1447 c-2 -796 -3 -1452 -4 -1458 0 -7 -18 -11 -42 -10 l-43 1 2 520 c1 286 2
946 3 1468 2 751 5 947 14 947 7 0 26 -5 43 -10z m109 -41 c4 -7 7 -1798 4
-2761 l0 -128 -29 0 c-29 0 -29 1 -29 55 1 30 -1 57 -4 60 -3 3 -2 23 2 45 4
22 4 40 1 40 -9 0 -8 54 1 61 4 3 4 19 -1 35 -5 18 -5 37 1 47 6 11 5 17 -2
17 -7 0 -8 6 0 19 6 12 6 22 1 26 -6 3 -6 17 -1 35 5 18 5 32 -1 35 -5 4 -5
14 2 27 9 16 8 19 -2 13 -8 -6 -10 -4 -3 6 5 8 9 542 10 1199 1 652 2 1186 3
1187 3 4 42 -11 47 -18z m66 -32 c11 -11 13 -265 11 -1413 -1 -769 -2 -1409
-2 -1421 -1 -16 -7 -23 -21 -23 -19 0 -20 7 -20 153 0 196 0 2526 0 2635 0 81
6 94 32 69z m94 -48 c5 -8 9 -2708 5 -2795 -1 -6 -12 -11 -26 -11 l-25 0 0
1419 c0 1402 0 1419 19 1408 11 -5 23 -15 27 -21z m112 -212 c-2 -81 0 -147 4
-147 4 0 5 -6 2 -13 -8 -21 -10 -467 -2 -467 4 0 5 -6 2 -13 -8 -21 -10 -467
-2 -467 4 0 5 -6 2 -13 -8 -21 -10 -467 -2 -467 4 0 5 -6 2 -13 -8 -22 -9
-627 -1 -627 5 0 5 -5 2 -10 -4 -6 -6 -87 -5 -180 0 -94 -3 -171 -7 -171 -35
-6 -54 -5 -59 3 -10 15 -10 818 -1 818 5 0 5 5 1 11 -5 8 -9 1927 -5 1947 1 1
17 -8 36 -20 l35 -23 -2 -148z m-3601 111 c-3 -8 -6 -5 -6 6 -1 11 2 17 5 13
3 -3 4 -12 1 -19z m3734 -68 c0 -7 0 -2612 0 -2625 -1 -14 -91 -14 -92 -1 -3
35 -4 2674 -1 2688 3 14 12 11 48 -20 24 -20 44 -39 45 -42z m-3734 -22 c-3
-8 -6 -5 -6 6 -1 11 2 17 5 13 3 -3 4 -12 1 -19z m3850 -89 l38 -40 -2 -1232
c-2 -678 -5 -1236 -7 -1242 -2 -5 -21 -10 -42 -10 l-39 1 0 1219 c0 1151 2
1345 11 1345 2 0 20 -18 41 -41z m97 -116 l25 -38 0 -1181 c0 -1139 -1 -1182
-18 -1187 -11 -2 -24 -2 -29 2 -8 5 -10 376 -9 1224 1 669 3 1217 4 1217 2 0
14 -17 27 -37z m-3947 -25 c-3 -8 -6 -5 -6 6 -1 11 2 17 5 13 3 -3 4 -12 1
-19z m4034 -109 l33 -51 0 -1108 1 -1108 -28 -5 c-15 -2 -31 1 -34 6 -5 9 -12
2317 -7 2317 1 0 17 -23 35 -51z m-4034 19 c-3 -8 -6 -5 -6 6 -1 11 2 17 5 13
3 -3 4 -12 1 -19z m4147 -257 c24 -65 27 -92 29 -213 1 -76 -2 -138 -6 -138
-5 0 -5 -5 -2 -11 5 -8 10 -1376 6 -1581 -1 -26 -42 -78 -61 -78 -6 0 -10 10
-10 23 0 100 0 1897 0 1982 0 64 4 105 9 100 5 -6 21 -43 35 -84z m-4147 17
c-3 -8 -6 -5 -6 6 -1 11 2 17 5 13 3 -3 4 -12 1 -19z m0 -150 c-3 -8 -6 -5 -6
6 -1 11 2 17 5 13 3 -3 4 -12 1 -19z m0 -90 c-3 -8 -6 -5 -6 6 -1 11 2 17 5
13 3 -3 4 -12 1 -19z m4227 -76 c3 -23 9 -70 13 -105 8 -74 8 -953 -1 -1147
-8 -168 -16 -253 -24 -262 -4 -4 -7 348 -7 782 0 434 3 786 7 782 3 -4 9 -26
12 -50z m-4227 -324 c-3 -8 -6 -5 -6 6 -1 11 2 17 5 13 3 -3 4 -12 1 -19z m0
-150 c-3 -8 -6 -5 -6 6 -1 11 2 17 5 13 3 -3 4 -12 1 -19z m0 -90 c-3 -8 -6
-5 -6 6 -1 11 2 17 5 13 3 -3 4 -12 1 -19z m0 -390 c-3 -8 -6 -5 -6 6 -1 11 2
17 5 13 3 -3 4 -12 1 -19z m0 -90 c-3 -8 -6 -5 -6 6 -1 11 2 17 5 13 3 -3 4
-12 1 -19z m0 -230 c-3 -8 -6 -5 -6 6 -1 11 2 17 5 13 3 -3 4 -12 1 -19z m0
-90 c-3 -8 -6 -5 -6 6 -1 11 2 17 5 13 3 -3 4 -12 1 -19z m0 -360 c-3 -8 -6
-5 -6 6 -1 11 2 17 5 13 3 -3 4 -12 1 -19z"/>
<path d="M20635 22153 c-103 -20 -197 -80 -244 -156 -21 -34 -45 -100 -56
-156 -4 -19 -7 -1268 -7 -2775 0 -2140 3 -2755 12 -2806 31 -161 137 -275 295
-319 47 -13 7069 -11 7120 2 17 4 68 14 115 23 47 8 106 22 131 30 25 9 52 17
60 18 14 3 17 4 109 39 172 64 353 179 479 303 l54 54 58 -86 c261 -383 613
-636 1067 -768 101 -30 168 -43 352 -72 80 -13 429 -11 545 3 147 17 365 70
470 113 11 5 31 12 45 16 87 24 324 158 455 258 222 168 419 409 557 680 36
72 104 231 114 266 2 8 17 59 33 112 27 89 52 195 65 273 2 17 8 50 11 75 4
25 9 53 11 63 1 9 6 66 10 125 47 655 -115 1254 -457 1699 -70 91 -247 265
-339 334 -299 224 -627 352 -1015 394 -113 13 -380 12 -495 -2 -539 -62 -1007
-313 -1323 -710 -59 -73 -147 -199 -147 -208 0 -2 -11 -21 -25 -41 -35 -52
-116 -222 -158 -334 -60 -158 -110 -354 -131 -521 -31 -233 -23 -560 18 -794
14 -80 14 -80 -14 -142 -72 -159 -188 -274 -368 -363 -76 -38 -213 -84 -282
-94 -19 -3 -46 -8 -60 -12 -14 -3 -193 -8 -398 -10 l-373 -4 3 842 c1 464 -1
870 -5 903 -4 33 -10 80 -13 105 -74 650 -410 1228 -897 1545 -231 150 -549
271 -792 301 -22 3 -46 7 -53 10 -22 7 -219 18 -327 18 -208 0 -375 -22 -564
-76 -193 -55 -299 -99 -486 -202 -110 -61 -265 -184 -386 -305 -331 -333 -548
-809 -607 -1331 -9 -79 -9 -515 0 -585 14 -110 20 -150 24 -156 1 -3 6 -28 10
-55 10 -79 69 -282 114 -395 82 -207 206 -415 330 -552 19 -21 38 -44 42 -51
6 -11 -213 -13 -1107 -14 -613 0 -1116 3 -1116 6 -1 4 -3 1166 -4 2582 l-1
2575 -23 75 c-37 122 -116 209 -221 241 -36 11 -179 19 -215 12z m4489 -2497
c183 -37 363 -112 504 -212 99 -70 234 -211 304 -317 127 -192 217 -441 243
-667 3 -25 8 -63 12 -85 3 -22 7 -416 7 -877 l1 -836 -745 2 c-410 1 -754 5
-765 8 -11 3 -41 8 -66 12 -81 12 -99 16 -177 42 -98 33 -210 85 -268 123 -25
17 -48 31 -51 31 -14 0 -139 109 -206 180 -97 103 -158 190 -224 320 -46 91
-112 272 -129 350 -38 186 -48 280 -48 470 0 131 3 178 20 305 12 96 87 346
123 412 5 10 16 32 24 48 66 142 175 282 321 413 160 144 432 262 661 288 33
3 62 8 64 10 10 10 326 -6 395 -20z"/>
<path d="M4374 21728 c-206 -31 -348 -207 -347 -430 1 -199 111 -345 301 -402
68 -20 208 -16 277 9 169 60 275 208 276 389 2 285 -224 478 -507 434z"/>
<path d="M5551 21728 c-74 -11 -171 -61 -226 -117 -25 -25 -63 -79 -83 -119
-32 -66 -36 -84 -39 -161 -4 -146 35 -249 126 -334 85 -80 182 -116 307 -114
128 1 229 43 308 127 80 85 117 195 110 320 -16 266 -234 438 -503 398z"/>
<path d="M24170 21674 c-82 -17 -140 -47 -193 -98 -74 -72 -98 -113 -122 -211
-33 -133 -4 -284 74 -383 47 -59 89 -91 169 -126 91 -40 232 -39 335 1 196 77
293 265 251 487 -14 70 -55 155 -101 206 -92 104 -263 155 -413 124z"/>
<path d="M25376 21678 c-210 -28 -362 -207 -358 -423 0 -44 3 -87 5 -95 24
-94 49 -142 106 -203 120 -130 349 -169 511 -87 77 39 116 74 161 142 49 77
73 176 65 271 -7 94 -19 131 -60 200 -44 73 -79 107 -147 145 -93 52 -170 65
-283 50z"/>
<path d="M34880 13835 l0 -2505 -27 -1 c-16 0 -1102 -1 -2415 -1 l-2388 -1 0
-172 0 -173 2588 0 2587 0 0 2677 -1 2676 -172 2 -172 2 0 -2504z"/>
<path d="M476 13580 c1 -1422 2 -2588 3 -2591 0 -4 79 -6 174 -5 94 2 1298 3
2675 4 l2502 2 -2 173 -3 172 -2502 0 -2503 0 0 2415 0 2415 -173 0 -172 0 1
-2585z"/>
</g>
</svg>
